<svg width="162" height="176" viewBox="0 0 162 176" fill="none" xmlns="http://www.w3.org/2000/svg">
<g clip-path="url(#clip0_530_752)">
<rect x="38" y="37.9999" width="85.9815" height="110.548" rx="6.82393" fill="#EC57FD"/>
<path d="M74.1869 88.6945L26.8079 139.864C26.1071 140.621 25.7178 141.614 25.7178 142.646V148.547C25.7178 150.809 27.5509 152.642 29.8121 152.642H126.712C128.973 152.642 130.806 150.809 130.806 148.547V71.9943C130.806 67.9433 125.552 66.3525 123.305 69.7232L102.011 101.664C100.637 103.725 97.7624 104.103 95.9019 102.468L79.8939 88.4007C78.2264 86.9353 75.695 87.0657 74.1869 88.6945Z" fill="white"/>
<circle cx="93.9574" cy="65.2956" r="13.6479" fill="white"/>
</g>
<path d="M133 0L135.256 26.7443L162 29L135.256 31.2557L133 58L130.744 31.2557L104 29L130.744 26.7443L133 0Z" fill="#EC57FD"/>
<path d="M32 138L33.4779 155.522L51 157L33.4779 158.478L32 176L30.5221 158.478L13 157L30.5221 155.522L32 138Z" fill="#EC57FD"/>
<defs>
<clipPath id="clip0_530_752">
<rect x="38" y="38" width="85.9815" height="110.548" rx="6.82393" fill="white"/>
</clipPath>
</defs>
</svg>
