<svg width="113" height="137" viewBox="0 0 113 137" fill="none" xmlns="http://www.w3.org/2000/svg">
<path d="M56.499 71.7434V15.1256" stroke="#EC57FD" stroke-width="7" stroke-miterlimit="10" stroke-linecap="round"/>
<path d="M34.7236 51.764L53.3964 70.4369C54.2222 71.2549 55.3376 71.7137 56.4996 71.7137C57.6616 71.7137 58.777 71.2549 59.6028 70.4369L78.2757 51.764" stroke="#EC57FD" stroke-width="7" stroke-linecap="round" stroke-linejoin="round"/>
<path d="M12.9473 65.2108V86.9869C12.9473 89.8742 14.0944 92.6438 16.1363 94.6856C18.1782 96.7274 20.9476 97.8747 23.8353 97.8747H89.1632C92.051 97.8747 94.8205 96.7274 96.8623 94.6856C98.9042 92.6438 100.051 89.8742 100.051 86.9869V65.2108" stroke="#F3F3F3" stroke-width="7" stroke-linecap="round" stroke-linejoin="round"/>
<path d="M22.1698 130V119.818H28.4837V121.141H23.706V124.243H28.0313V125.56H23.706V130H22.1698ZM42.9729 130V119.818H46.6022C47.391 119.818 48.0456 119.954 48.5659 120.226C49.0896 120.498 49.4807 120.874 49.7392 121.354C49.9978 121.832 50.127 122.384 50.127 123.01C50.127 123.633 49.9961 124.182 49.7343 124.656C49.4757 125.126 49.0846 125.492 48.561 125.754C48.0406 126.016 47.386 126.147 46.5972 126.147H43.8479V124.825H46.458C46.9551 124.825 47.3595 124.753 47.6711 124.611C47.9859 124.468 48.2163 124.261 48.3621 123.989C48.5079 123.718 48.5809 123.391 48.5809 123.01C48.5809 122.625 48.5063 122.292 48.3571 122.011C48.2113 121.729 47.981 121.513 47.6661 121.364C47.3545 121.212 46.9452 121.136 46.4381 121.136H44.5091V130H42.9729ZM47.9992 125.406L50.5148 130H48.7648L46.2989 125.406H47.9992ZM64.5963 130V119.818H70.9799V121.141H66.1326V124.243H70.6468V125.56H66.1326V128.678H71.0395V130H64.5963ZM85.6319 130V119.818H92.0154V121.141H87.1681V124.243H91.6823V125.56H87.1681V128.678H92.0751V130H85.6319Z" fill="#EC57FD"/>
</svg>
