<svg width="165" height="123" viewBox="0 0 165 123" fill="none" xmlns="http://www.w3.org/2000/svg">
<g clip-path="url(#clip0_530_750)">
<rect x="102.065" width="63" height="81" rx="5" transform="rotate(10 102.065 0)" fill="#EC57FD"/>
<path d="M121.727 41.1846L81.0283 72.0793C80.4264 72.5362 80.019 73.2036 79.8878 73.9478L79.1369 78.2065C78.8492 79.8382 79.9387 81.3942 81.5704 81.6819L151.492 94.0109C153.123 94.2986 154.679 93.2091 154.967 91.5774L164.707 36.3379C165.223 33.4148 161.634 31.5984 159.584 33.7447L140.154 54.0834C138.901 55.3957 136.778 55.303 135.643 53.8865L125.882 41.6987C124.865 40.4292 123.022 40.2011 121.727 41.1846Z" fill="white"/>
<circle cx="138.97" cy="26.8158" r="10" transform="rotate(10 138.97 26.8158)" fill="white"/>
</g>
<g clip-path="url(#clip1_530_750)">
<rect y="12.8043" width="85.9815" height="110.548" rx="6.82393" transform="rotate(-7.21884 0 12.8043)" fill="#EC57FD"/>
<path d="M42.2704 58.55L1.69684 115.267C1.09672 116.106 0.835346 117.141 0.964957 118.164L1.70658 124.019C1.99073 126.262 4.03965 127.851 6.28298 127.566L102.415 115.39C104.658 115.106 106.246 113.057 105.962 110.814L96.3424 34.8674C95.8334 30.8485 90.4212 29.9306 88.6154 33.5569L71.504 67.9202C70.4 70.1374 67.5954 70.8742 65.5441 69.4859L47.8952 57.5414C46.0569 56.2972 43.5619 56.7446 42.2704 58.55Z" fill="white"/>
<circle cx="58.9431" cy="32.8522" r="13.6479" transform="rotate(-7.21884 58.9431 32.8522)" fill="white"/>
</g>
<defs>
<clipPath id="clip0_530_750">
<rect x="102.065" width="63" height="81" rx="5" transform="rotate(10 102.065 0)" fill="white"/>
</clipPath>
<clipPath id="clip1_530_750">
<rect y="12.8044" width="85.9815" height="110.548" rx="6.82393" transform="rotate(-7.21884 0 12.8044)" fill="white"/>
</clipPath>
</defs>
</svg>
